<svg width="40" height="65" viewBox="0 0 40 65" fill="none" xmlns="http://www.w3.org/2000/svg">
<path d="M19.0361 33.262C19.0361 34.438 18.6721 35.39 17.9441 36.118C17.2161 36.818 16.2641 37.168 15.0881 37.168H13.3241C12.1481 37.168 11.1961 36.818 10.4681 36.118C9.74013 35.39 9.37613 34.438 9.37613 33.262V24.484H13.3661V33.052C13.3661 33.192 13.4361 33.262 13.5761 33.262H14.8361C14.9761 33.262 15.0461 33.192 15.0461 33.052V11.506H13.3661L13.7021 7.6H19.0361V33.262ZM29.8006 20.326L29.3806 24.232H25.0966V37H21.1066V11.506H20.4766L20.8966 7.6H30.6406L30.2206 11.506H25.0966V20.326H29.8006Z" fill="white"/>
<path d="M15.0488 49V43.1H15.3488V49H15.0488ZM15.6488 49V43.1H16.2488V49H15.6488ZM16.5488 49V43.1H17.4488V49H16.5488ZM18.3496 49V43.1H18.6496V49H18.3496ZM18.9496 49V43.1H19.2496V49H18.9496ZM20.1496 49V43.1H20.7496V49H20.1496ZM21.6504 49V43.1H21.9504V49H21.6504ZM22.2504 49V43.1H23.1504V49H22.2504ZM24.0504 49V43.1H24.6504V49H24.0504ZM5.14648 58V52.1H5.44648V58H5.14648ZM6.34648 58V52.1H6.94648V58H6.34648ZM7.84648 58V52.1H8.14648V58H7.84648ZM8.44727 58V52.1H9.04727V58H8.44727ZM9.94727 58V52.1H10.2473V58H9.94727ZM10.5473 58V52.1H11.4473V58H10.5473ZM11.748 58V52.1H12.048V58H11.748ZM12.348 58V52.1H12.648V58H12.348ZM13.548 58V52.1H14.148V58H13.548ZM15.0488 58V52.1H15.3488V58H15.0488ZM15.6488 58V52.1H16.5488V58H15.6488ZM17.4488 58V52.1H18.0488V58H17.4488ZM18.3496 58V52.1H18.6496V58H18.3496ZM19.5496 58V52.1H19.8496V58H19.5496ZM20.7496 58V52.1H21.3496V58H20.7496ZM21.6504 58V52.1H21.9504V58H21.6504ZM22.2504 58V52.1H22.8504V58H22.2504ZM23.7504 58V52.1H24.6504V58H23.7504ZM24.9512 58V52.1H25.5512V58H24.9512ZM25.8512 58V52.1H26.7512V58H25.8512ZM27.0512 58V52.1H27.3512V58H27.0512ZM28.252 58V52.1H28.552V58H28.252ZM29.452 58V52.1H30.052V58H29.452ZM30.352 58V52.1H30.652V58H30.352ZM31.5527 58V52.1H31.8527V58H31.5527ZM32.1527 58V52.1H33.0527V58H32.1527ZM33.9527 58V52.1H34.5527V58H33.9527Z" fill="white"/>
<rect x="0.5" y="0.5" width="39" height="64" stroke="white"/>
</svg>
